<svg xmlns="http://www.w3.org/2000/svg" viewBox="0 0 51.22 51.22"><defs><style>.cls-1{fill:#8e8e8e;}</style></defs><title>Asset 1</title><g id="Layer_2" data-name="Layer 2"><g id="Layer_1-2" data-name="Layer 1"><path class="cls-1" d="M17.78,38.83c-.12,0-.24,0-.24-.12A.58.58,0,0,1,17.3,38l6.25-12.14H20.06a.62.62,0,0,1-.48-.24.37.37,0,0,1,0-.48L19.7,25c0-.12.12-.12.12-.24L21.26,22c1.56-3,3.12-6,4.81-9a1.26,1.26,0,0,1,1.08-.6H33.4a.62.62,0,0,1,.48.24.54.54,0,0,1,0,.6L28.71,21h4.57a.62.62,0,0,1,.48.24.76.76,0,0,1,0,.72L18.14,38.71C18.14,38.83,17.9,38.83,17.78,38.83ZM20.9,24.89h3.48a.62.62,0,0,1,.48.24.37.37,0,0,1,0,.48L19.94,35.1l11.9-13H27.39a.62.62,0,0,1-.48-.24.54.54,0,0,1,0-.6l5.17-7.81H26.91c-1.56,3-3.12,6-4.81,9Z"/><path class="cls-1" d="M25.61,0A25.61,25.61,0,1,0,51.22,25.61,25.64,25.64,0,0,0,25.61,0ZM47.72,25.61A22.11,22.11,0,1,1,25.61,3.5,22.13,22.13,0,0,1,47.72,25.61Z"/></g></g></svg>