<svg xmlns="http://www.w3.org/2000/svg" viewBox="0 0 50.72 50.72"><defs><style>.cls-1{fill:#8e8e8e;}</style></defs><title>Asset 5</title><g id="Layer_2" data-name="Layer 2"><g id="Layer_1-2" data-name="Layer 1"><path class="cls-1" d="M25.36,50.72A25.36,25.36,0,1,1,50.72,25.36,25.39,25.39,0,0,1,25.36,50.72ZM25.36,3A22.36,22.36,0,1,0,47.72,25.36,22.38,22.38,0,0,0,25.36,3Z"/><path class="cls-1" d="M36.83,29.77c-.53-.53-2.64-1.32-5.4-2.37a6.12,6.12,0,0,1-1.19-.4,4.19,4.19,0,0,1-1.32-.66v-.66A9.35,9.35,0,0,0,31.55,19c0-3.82-2.5-6.59-6.06-6.59h-.26c-3.56,0-6.06,2.77-6.06,6.59a9.35,9.35,0,0,0,2.64,6.72v.66a4.19,4.19,0,0,1-1.32.66,6.12,6.12,0,0,1-1.19.4c-2.77,1.05-4.88,1.85-5.4,2.37-1.32,1.32-1.58,6.06-1.58,6.06a1.49,1.49,0,0,0,1.05,1.45,54.79,54.79,0,0,0,12,1.05,54.79,54.79,0,0,0,12-1.05,1.49,1.49,0,0,0,1.05-1.45S38.14,31.09,36.83,29.77Zm-11.2,7h-.53a59,59,0,0,1-11.34-.92c0-.92.53-4.22,1.05-4.88a41,41,0,0,1,5-2.11,12.12,12.12,0,0,1,1.19-.4c1.05-.4,2.24-.92,2.24-2.11V25.29a.69.69,0,0,0-.26-.53A7.55,7.55,0,0,1,20.61,19c0-3,1.85-5,4.48-5l.26,0,.26,0c2.64,0,4.48,2,4.48,5a7.55,7.55,0,0,1-2.37,5.8.69.69,0,0,0-.26.53v1.05c0,1.19,1.19,1.71,2.24,2.11a12.12,12.12,0,0,1,1.19.4,41,41,0,0,1,5,2.11c.53.66,1.05,4,1.05,4.88A59,59,0,0,1,25.62,36.76Z"/></g></g></svg>